<svg width="24" height="24" viewBox="0 0 24 24" fill="none" xmlns="http://www.w3.org/2000/svg">
<rect x="0.5" y="0.5" width="23" height="23" rx="3.5" stroke="#E2005E"/>
<path fill-rule="evenodd" clip-rule="evenodd" d="M8.74622 18C8.28799 18 7.88708 17.6944 7.76933 17.2553L6.034 10.785C5.92561 10.3809 6.08175 9.95244 6.4257 9.71032L11.4338 6.18502C11.7843 5.93836 12.2537 5.93832 12.6041 6.18493L17.5742 9.68227C17.9376 9.93799 18.0892 10.3995 17.9474 10.8183L15.7481 17.3166C15.6099 17.7249 15.2241 18 14.7898 18H8.74622ZM12.0658 8.99542C11.6533 8.99542 11.3188 9.32698 11.3188 9.73598V12.6982C11.3188 13.1072 11.6533 13.4388 12.0658 13.4388C12.4783 13.4388 12.8127 13.1072 12.8127 12.6982V9.73598C12.8127 9.32698 12.4783 8.99542 12.0658 8.99542ZM12.0658 15.6604C12.4783 15.6604 12.8127 15.3289 12.8127 14.9199C12.8127 14.5109 12.4783 14.1793 12.0658 14.1793C11.6533 14.1793 11.3188 14.5109 11.3188 14.9199C11.3188 15.3289 11.6533 15.6604 12.0658 15.6604Z" fill="#E2005E"/>
</svg>
