<svg width="24" height="24" viewBox="0 0 24 24" fill="none" xmlns="http://www.w3.org/2000/svg">
<rect x="0.5" y="0.5" width="23" height="23" rx="3.5" stroke="#FE7B1F"/>
<path fill-rule="evenodd" clip-rule="evenodd" d="M12.8746 6.55371C12.502 5.8149 11.481 5.81557 11.1094 6.55487L6.11385 16.4928C5.76882 17.1792 6.24962 18 6.99672 18H17.0033C17.7509 18 18.2317 17.1781 17.8856 16.4916L12.8746 6.55371ZM12 9.75293C11.5877 9.75293 11.2534 10.0991 11.2534 10.5262V13.0901C11.2534 13.5172 11.5877 13.8634 12 13.8634C12.4122 13.8634 12.7465 13.5172 12.7465 13.0901V10.5262C12.7465 10.0991 12.4122 9.75293 12 9.75293ZM12 16.1969C12.4122 16.1969 12.7465 15.8507 12.7465 15.4236C12.7465 14.9966 12.4122 14.6503 12 14.6503C11.5877 14.6503 11.2534 14.9966 11.2534 15.4236C11.2534 15.8507 11.5877 16.1969 12 16.1969Z" fill="#FE7B1F"/>
</svg>
