<svg width="24" height="24" viewBox="0 0 24 24" fill="none" xmlns="http://www.w3.org/2000/svg">
<rect x="0.5" y="0.5" width="23" height="23" rx="3.5" stroke="#F8CD39"/>
<path fill-rule="evenodd" clip-rule="evenodd" d="M12 18C15.3137 18 18 15.3137 18 12C18 8.68629 15.3137 6 12 6C8.68629 6 6 8.68629 6 12C6 15.3137 8.68629 18 12 18ZM12 8.625C11.5858 8.625 11.25 8.96079 11.25 9.375V12.375C11.25 12.7892 11.5858 13.125 12 13.125C12.4142 13.125 12.75 12.7892 12.75 12.375V9.375C12.75 8.96079 12.4142 8.625 12 8.625ZM12 15.375C12.4142 15.375 12.75 15.0392 12.75 14.625C12.75 14.2108 12.4142 13.875 12 13.875C11.5858 13.875 11.25 14.2108 11.25 14.625C11.25 15.0392 11.5858 15.375 12 15.375Z" fill="#F8CD39"/>
</svg>
